# =========================
# AVION CAZA - VALID OBJ
# =========================

# -------- VERTICES --------

# MORRO Y CABINA (1-9)
# Centro de la punta del morro
v 0.0 0.0 1.0
# Base del morro
v 0.04 0.02 0.6
v -0.04 0.02 0.6
v -0.04 -0.06 0.6
v 0.04 -0.06 0.6
# Cúpula de la cabina y parte baja media
v 0.06 0.22 0.1
v -0.06 0.22 0.1
v -0.1 -0.08 0.1
v 0.1 -0.08 0.1

# FUSELAJE TRASERO (10-17)
# Ensanche hacia los motores
v 0.15 0.08 -0.4
v -0.15 0.08 -0.4
v -0.15 -0.1 -0.4
v 0.15 -0.1 -0.4
# Base de las toberas/cola
v 0.12 0.05 -0.95
v -0.12 0.05 -0.95
v -0.12 -0.1 -0.95
v 0.12 -0.1 -0.95

# ALA DERECHA (18-21)
# Forma de Delta: Frente, Punta, Atrás, Relieve superior
v 0.08 -0.02 0.2
v 0.9 0.0 -0.4
v 0.12 -0.02 -0.6
v 0.1 0.05 -0.2

# ALA IZQUIERDA (22-25)
v -0.08 -0.02 0.2
v -0.9 0.0 -0.4
v -0.12 -0.02 -0.6
v -0.1 0.05 -0.2

# ESTABILIZADOR HORIZONTAL DERECHO (26-29)
v 0.12 0.0 -0.7
v 0.5 0.0 -0.85
v 0.12 0.0 -0.95
v 0.14 0.04 -0.82

# ESTABILIZADOR HORIZONTAL IZQUIERDO (30-33)
v -0.12 0.0 -0.7
v -0.5 0.0 -0.85
v -0.12 0.0 -0.95
v -0.14 0.04 -0.82

# ESTABILIZADOR VERTICAL DERECHO (34-37)
# Aleta inclinada hacia afuera
v 0.1 0.05 -0.6
v 0.3 0.4 -0.9
v 0.1 0.05 -0.95
v 0.15 0.05 -0.8

# ESTABILIZADOR VERTICAL IZQUIERDO (38-41)
v -0.1 0.05 -0.6
v -0.3 0.4 -0.9
v -0.1 0.05 -0.95
v -0.15 0.05 -0.8


# -------- FACES --------

# MORRO
f 1 2 3
f 1 3 4
f 1 4 5
f 1 5 2

# CABINA / FUSELAJE MEDIO
f 2 6 7
f 2 7 3
f 3 7 8
f 3 8 4
f 4 8 9
f 4 9 5
f 5 9 6
f 5 6 2

# FUSELAJE TRASERO
f 6 10 11
f 6 11 7
f 7 11 12
f 7 12 8
f 8 12 13
f 8 13 9
f 9 13 10
f 9 10 6

# MOTORES / COLA (Estructura principal)
f 10 14 15
f 10 15 11
f 11 15 16
f 11 16 12
f 12 16 17
f 12 17 13
f 13 17 14
f 13 14 10

# TAPA TRASERA (Cierre posterior del fuselaje)
f 15 14 17
f 15 17 16

# ALA DERECHA
f 18 19 21
f 19 20 21
f 18 20 19
f 18 21 20

# ALA IZQUIERDA
f 22 25 23
f 23 25 24
f 22 23 24
f 22 24 25

# ESTABILIZADOR HORIZONTAL DERECHO
f 26 27 29
f 27 28 29
f 26 28 27
f 26 29 28

# ESTABILIZADOR HORIZONTAL IZQUIERDO
f 30 33 31
f 31 33 32
f 30 31 32
f 30 32 33

# ESTABILIZADOR VERTICAL DERECHO
f 34 36 35
f 34 35 37
f 37 35 36
f 34 37 36

# ESTABILIZADOR VERTICAL IZQUIERDO
f 38 39 40
f 38 41 39
f 41 40 39
f 38 40 41