# ===================================================
# MOTOCICLETA DEPORTIVA REALISTA - HIGH POLY VALID OBJ
# ===================================================

# -------- VERTICES --------

# --- RUEDA DELANTERA (Cilindro de 8 caras + Perfil) (1-18)
# Centro del eje delantero
v 0.0 -0.5 0.75
# Perfil exterior neumatico derecho (X = 0.06)
v 0.06 -0.20 0.75
v 0.06 -0.29 0.96
v 0.06 -0.50 1.05
v 0.06 -0.71 0.96
v 0.06 -0.80 0.75
v 0.06 -0.71 0.54
v 0.06 -0.50 0.45
v 0.06 -0.29 0.54
# Perfil exterior neumatico izquierdo (X = -0.06)
v -0.06 -0.20 0.75
v -0.06 -0.29 0.96
v -0.06 -0.50 1.05
v -0.06 -0.71 0.96
v -0.06 -0.80 0.75
v -0.06 -0.71 0.54
v -0.06 -0.50 0.45
v -0.06 -0.29 0.54

# --- DISCOS DE FRENO DELANTEROS (19-22)
v 0.04 -0.5 0.87
v 0.04 -0.5 0.63
v -0.04 -0.5 0.87
v -0.04 -0.5 0.63

# --- HORQUILLA DELANTERA Y MANILLAR (23-34)
# Barras de suspension telescópicas
v 0.08 -0.5 0.75
v -0.08 -0.5 0.75
v 0.07 0.3 0.5
v -0.07 0.3 0.5
# Tija superior y semimanillares
v 0.0 0.33 0.48
v 0.22 0.31 0.45
v -0.22 0.31 0.45
v 0.25 0.31 0.43
v -0.25 0.31 0.43
# Guardabarros delantero
v 0.08 -0.15 0.8
v -0.08 -0.15 0.8
v 0.0 -0.12 0.9

# --- CARENADO FRONTAL Y CUPULA (35-46)
v 0.0 0.45 0.55
v 0.12 0.4 0.52
v -0.12 0.4 0.52
v 0.0 0.25 0.85
v 0.15 0.15 0.75
v -0.15 0.15 0.75
v 0.18 0.0 0.6
v -0.18 0.0 0.6
v 0.05 0.22 0.82
v -0.05 0.22 0.82
v 0.08 0.32 0.62
v -0.08 0.32 0.62

# --- DEPOSITO DE GASOLINA (47-56)
v 0.0 0.38 0.25
v 0.18 0.34 0.2
v -0.18 0.34 0.2
v 0.22 0.18 0.0
v -0.22 0.18 0.0
v 0.12 0.12 0.3
v -0.12 0.12 0.3
v 0.0 0.35 -0.05
v 0.14 0.28 -0.08
v -0.14 0.28 -0.08

# --- CHASIS PERIMETRAL Y MOTOR (57-68)
v 0.15 0.0 0.35
v -0.15 0.0 0.35
v 0.18 -0.2 0.1
v -0.18 -0.2 0.1
v 0.16 -0.4 -0.1
v -0.16 -0.4 -0.1
v 0.12 -0.4 0.4
v -0.12 -0.4 0.4
# Radiador / Quilla baja
v 0.0 -0.42 0.5
v 0.15 -0.25 0.52
v -0.15 -0.25 0.52
v 0.0 -0.5 -0.1

# --- ASIENTO Y COLIN DEPORTIVO (69-82)
v 0.0 0.11 -0.15
v 0.13 0.14 -0.2
v -0.13 0.14 -0.2
v 0.0 0.16 -0.45
v 0.11 0.2 -0.5
v -0.11 0.2 -0.5
v 0.0 0.22 -0.8
v 0.06 0.21 -0.82
v -0.06 0.21 -0.82
v 0.0 0.12 -0.83
# Subchasis inferior visible
v 0.08 -0.1 -0.3
v -0.08 -0.1 -0.3
v 0.06 -0.05 -0.6
v -0.06 -0.05 -0.6

# --- BASCULANTE TRASERO Y TRANSMISION (83-88)
v 0.1 -0.25 -0.2
v -0.1 -0.25 -0.2
v 0.08 -0.5 -0.65
v -0.08 -0.5 -0.65
v 0.07 -0.48 -0.35
v -0.07 -0.48 -0.35

# --- RUEDA TRASERA (Mas ancha X = 0.09) (89-105)
# Centro del eje trasero
v 0.0 -0.5 -0.65
# Perfil derecho (X = 0.09)
v 0.09 -0.20 -0.65
v 0.09 -0.29 -0.44
v 0.09 -0.50 -0.35
v 0.09 -0.71 -0.44
v 0.09 -0.80 -0.65
v 0.09 -0.71 -0.86
v 0.09 -0.50 -0.95
v 0.09 -0.29 -0.86
# Perfil izquierdo (X = -0.09)
v -0.09 -0.20 -0.65
v -0.09 -0.29 -0.44
v -0.09 -0.50 -0.35
v -0.09 -0.71 -0.44
v -0.09 -0.80 -0.65
v -0.09 -0.71 -0.86
v -0.09 -0.50 -0.95
v -0.09 -0.29 -0.86

# --- TUBO DE ESCAPE ESCAPE RACING (Lado derecho) (106-111)
v 0.15 -0.45 0.1
v 0.18 -0.38 -0.2
v 0.22 -0.28 -0.5
v 0.26 -0.18 -0.75
v 0.21 -0.14 -0.77
v 0.24 -0.22 -0.73


# -------- CARAS (FACES) --------

# --- NEUMATICO DELANTERO (Banda de rodadura exterior)
f 2 3 11
f 3 12 11
f 3 4 12
f 4 13 12
f 4 5 13
f 5 14 13
f 5 6 14
f 6 15 14
f 6 7 15
f 7 16 15
f 7 8 16
f 8 17 16
f 8 9 17
f 9 18 17
f 9 2 18
f 2 10 18

# --- TAPA LATERAL LLANTA DELANTERA DERECHA
f 1 2 3
f 1 3 4
f 1 4 5
f 1 5 6
f 1 6 7
f 1 7 8
f 1 8 9
f 1 9 2

# --- TAPA LATERAL LLANTA DELANTERA IZQUIERDA
f 1 11 10
f 1 12 11
f 1 13 12
f 1 14 13
f 1 15 14
f 1 16 15
f 1 17 16
f 1 10 17

# --- DISCOS DE FRENO DELANTEROS
f 1 19 20
f 1 21 22

# --- HORQUILLA DELANTERA Y TAPABARROS
f 23 25 27
f 24 28 26
f 25 26 27
f 26 28 27
f 32 34 33
f 32 23 34
f 33 34 24

# --- MANILLAR
f 27 29 28
f 28 30 27
f 29 31 27
f 30 28 32

# --- CARENADO FRONTAL
f 35 36 45
f 35 46 37
f 35 45 46
f 38 41 39
f 38 40 42
f 38 43 41
f 38 42 44
f 43 39 41
f 44 42 40
f 36 39 41
f 37 42 40

# --- CARENADO LATERAL / QUILLA BAJA
f 39 59 57
f 40 58 60
f 57 61 63
f 58 64 62
f 63 65 61
f 64 62 65

# --- DEPOSITO DE GASOLINA
f 47 48 49
f 48 50 52
f 49 53 51
f 47 52 48
f 47 49 53
f 52 54 47
f 53 47 54
f 54 55 52
f 54 53 56
f 55 56 54

# --- MOTOR Y CHASIS CENTRAL
f 57 59 51
f 58 52 60
f 59 61 68
f 60 68 62
f 61 66 68
f 62 68 66

# --- ASIENTO PRINCIPAL Y PASAJERO
f 69 70 71
f 69 72 70
f 69 71 72
f 72 73 74

# --- COLIN AFILADO TRASERO
f 73 75 76
f 74 77 75
f 75 78 76
f 75 77 78
f 76 78 79
f 77 79 78
f 78 80 79

# --- BASCULANTE TRASERO
f 59 83 85
f 60 86 84
f 83 85 87
f 84 88 86

# --- TUBO DE ESCAPE DEPORTIVO ESCALONADO
f 106 107 108
f 107 109 108
f 108 109 111
f 108 111 110
f 109 110 111

# --- NEUMATICO TRASERO (Banda de rodadura exterior)
f 90 91 99
f 91 100 99
f 91 92 100
f 92 101 100
f 92 93 101
f 93 102 101
f 93 94 102
f 94 103 102
f 94 95 103
f 95 104 103
f 95 96 104
f 96 105 104
f 96 97 105
f 97 98 105
f 97 90 98
f 90 99 98

# --- TAPA LATERAL LLANTA TRASERA DERECHA
f 89 90 91
f 89 91 92
f 89 92 93
f 89 93 94
f 89 94 95
f 89 95 96
f 89 96 97
f 89 97 90

# --- TAPA LATERAL LLANTA TRASERA IZQUIERDA
f 89 100 99
f 89 101 100
f 89 102 101
f 89 103 102
f 89 104 103
f 89 105 104
f 89 98 105
f 89 99 98